<mxfile host="app.diagrams.net" agent="Mozilla/5.0 (Windows NT 10.0; Win64; x64) AppleWebKit/537.36 (KHTML, like Gecko) Chrome/137.0.0.0 Safari/537.36" version="27.1.1">
  <diagram name="Page-1" id="AOoYR3DAowxFUDNZ9j7_">
    <mxGraphModel dx="1042" dy="527" grid="1" gridSize="10" guides="1" tooltips="1" connect="1" arrows="1" fold="1" page="1" pageScale="1" pageWidth="827" pageHeight="1169" math="0" shadow="0">
      <root>
        <mxCell id="0" />
        <mxCell id="1" parent="0" />
        <mxCell id="qT4uBBfOojEsHXsENd5q-1" value="用戶選取文字提問" style="whiteSpace=wrap;strokeWidth=2;" vertex="1" parent="1">
          <mxGeometry x="139" y="20" width="188" height="54" as="geometry" />
        </mxCell>
        <mxCell id="qT4uBBfOojEsHXsENd5q-2" value="AI問答服務接收" style="whiteSpace=wrap;strokeWidth=2;" vertex="1" parent="1">
          <mxGeometry x="148" y="124" width="170" height="54" as="geometry" />
        </mxCell>
        <mxCell id="qT4uBBfOojEsHXsENd5q-3" value="問題文本向量化" style="whiteSpace=wrap;strokeWidth=2;" vertex="1" parent="1">
          <mxGeometry x="40" y="228" width="172" height="54" as="geometry" />
        </mxCell>
        <mxCell id="qT4uBBfOojEsHXsENd5q-4" value="Qdrant向量檢索" style="whiteSpace=wrap;strokeWidth=2;" vertex="1" parent="1">
          <mxGeometry x="39" y="332" width="173" height="54" as="geometry" />
        </mxCell>
        <mxCell id="qT4uBBfOojEsHXsENd5q-5" value="語義相似性搜尋" style="whiteSpace=wrap;strokeWidth=2;" vertex="1" parent="1">
          <mxGeometry x="40" y="436" width="172" height="54" as="geometry" />
        </mxCell>
        <mxCell id="qT4uBBfOojEsHXsENd5q-6" value="檢索相關文檔" style="whiteSpace=wrap;strokeWidth=2;" vertex="1" parent="1">
          <mxGeometry x="48" y="540" width="156" height="54" as="geometry" />
        </mxCell>
        <mxCell id="qT4uBBfOojEsHXsENd5q-7" value="Neo4j圖查詢" style="whiteSpace=wrap;strokeWidth=2;" vertex="1" parent="1">
          <mxGeometry x="265" y="332" width="150" height="54" as="geometry" />
        </mxCell>
        <mxCell id="qT4uBBfOojEsHXsENd5q-8" value="查找人物關係" style="whiteSpace=wrap;strokeWidth=2;" vertex="1" parent="1">
          <mxGeometry x="262" y="436" width="156" height="54" as="geometry" />
        </mxCell>
        <mxCell id="qT4uBBfOojEsHXsENd5q-9" value="獲取情節脈絡" style="whiteSpace=wrap;strokeWidth=2;" vertex="1" parent="1">
          <mxGeometry x="262" y="540" width="156" height="54" as="geometry" />
        </mxCell>
        <mxCell id="qT4uBBfOojEsHXsENd5q-10" value="LLM整合模組" style="whiteSpace=wrap;strokeWidth=2;" vertex="1" parent="1">
          <mxGeometry x="157" y="644" width="152" height="54" as="geometry" />
        </mxCell>
        <mxCell id="qT4uBBfOojEsHXsENd5q-11" value="智能提示詞工程" style="whiteSpace=wrap;strokeWidth=2;" vertex="1" parent="1">
          <mxGeometry x="147" y="748" width="172" height="54" as="geometry" />
        </mxCell>
        <mxCell id="qT4uBBfOojEsHXsENd5q-12" value="調用外部LLM API" style="whiteSpace=wrap;strokeWidth=2;" vertex="1" parent="1">
          <mxGeometry x="144" y="852" width="178" height="54" as="geometry" />
        </mxCell>
        <mxCell id="qT4uBBfOojEsHXsENd5q-13" value="生成專業解答" style="whiteSpace=wrap;strokeWidth=2;" vertex="1" parent="1">
          <mxGeometry x="155" y="956" width="156" height="54" as="geometry" />
        </mxCell>
        <mxCell id="qT4uBBfOojEsHXsENd5q-14" value="回應品質評估" style="whiteSpace=wrap;strokeWidth=2;" vertex="1" parent="1">
          <mxGeometry x="155" y="1060" width="156" height="54" as="geometry" />
        </mxCell>
        <mxCell id="qT4uBBfOojEsHXsENd5q-15" value="品質檢查通過?" style="rhombus;strokeWidth=2;whiteSpace=wrap;" vertex="1" parent="1">
          <mxGeometry x="155" y="1164" width="156" height="156" as="geometry" />
        </mxCell>
        <mxCell id="qT4uBBfOojEsHXsENd5q-16" value="返回答案給用戶" style="whiteSpace=wrap;strokeWidth=2;" vertex="1" parent="1">
          <mxGeometry x="20" y="1392" width="172" height="54" as="geometry" />
        </mxCell>
        <mxCell id="qT4uBBfOojEsHXsENd5q-17" value="重新生成或使用預設回答" style="whiteSpace=wrap;strokeWidth=2;" vertex="1" parent="1">
          <mxGeometry x="242" y="1392" width="236" height="54" as="geometry" />
        </mxCell>
        <mxCell id="qT4uBBfOojEsHXsENd5q-18" value="對話管理系統" style="whiteSpace=wrap;strokeWidth=2;" vertex="1" parent="1">
          <mxGeometry x="155" y="1496" width="156" height="54" as="geometry" />
        </mxCell>
        <mxCell id="qT4uBBfOojEsHXsENd5q-19" value="保存對話歷史" style="whiteSpace=wrap;strokeWidth=2;" vertex="1" parent="1">
          <mxGeometry x="155" y="1600" width="156" height="54" as="geometry" />
        </mxCell>
        <mxCell id="qT4uBBfOojEsHXsENd5q-20" value="更新用戶學習記錄" style="whiteSpace=wrap;strokeWidth=2;" vertex="1" parent="1">
          <mxGeometry x="139" y="1704" width="188" height="54" as="geometry" />
        </mxCell>
        <mxCell id="qT4uBBfOojEsHXsENd5q-22" value="" style="curved=1;startArrow=none;endArrow=block;exitX=0.5;exitY=1;entryX=0.5;entryY=0;rounded=0;" edge="1" parent="1" source="qT4uBBfOojEsHXsENd5q-1" target="qT4uBBfOojEsHXsENd5q-2">
          <mxGeometry relative="1" as="geometry">
            <Array as="points" />
          </mxGeometry>
        </mxCell>
        <mxCell id="qT4uBBfOojEsHXsENd5q-23" value="" style="curved=1;startArrow=none;endArrow=block;exitX=0.17;exitY=1;entryX=0.5;entryY=0;rounded=0;" edge="1" parent="1" source="qT4uBBfOojEsHXsENd5q-2" target="qT4uBBfOojEsHXsENd5q-3">
          <mxGeometry relative="1" as="geometry">
            <Array as="points">
              <mxPoint x="126" y="203" />
            </Array>
          </mxGeometry>
        </mxCell>
        <mxCell id="qT4uBBfOojEsHXsENd5q-24" value="" style="curved=1;startArrow=none;endArrow=block;exitX=0.5;exitY=1;entryX=0.5;entryY=0;rounded=0;" edge="1" parent="1" source="qT4uBBfOojEsHXsENd5q-3" target="qT4uBBfOojEsHXsENd5q-4">
          <mxGeometry relative="1" as="geometry">
            <Array as="points" />
          </mxGeometry>
        </mxCell>
        <mxCell id="qT4uBBfOojEsHXsENd5q-25" value="" style="curved=1;startArrow=none;endArrow=block;exitX=0.5;exitY=1;entryX=0.5;entryY=0;rounded=0;" edge="1" parent="1" source="qT4uBBfOojEsHXsENd5q-4" target="qT4uBBfOojEsHXsENd5q-5">
          <mxGeometry relative="1" as="geometry">
            <Array as="points" />
          </mxGeometry>
        </mxCell>
        <mxCell id="qT4uBBfOojEsHXsENd5q-26" value="" style="curved=1;startArrow=none;endArrow=block;exitX=0.5;exitY=1;entryX=0.5;entryY=0;rounded=0;" edge="1" parent="1" source="qT4uBBfOojEsHXsENd5q-5" target="qT4uBBfOojEsHXsENd5q-6">
          <mxGeometry relative="1" as="geometry">
            <Array as="points" />
          </mxGeometry>
        </mxCell>
        <mxCell id="qT4uBBfOojEsHXsENd5q-27" value="" style="curved=1;startArrow=none;endArrow=block;exitX=0.83;exitY=1;entryX=0.5;entryY=0;rounded=0;" edge="1" parent="1" source="qT4uBBfOojEsHXsENd5q-2" target="qT4uBBfOojEsHXsENd5q-7">
          <mxGeometry relative="1" as="geometry">
            <Array as="points">
              <mxPoint x="340" y="203" />
            </Array>
          </mxGeometry>
        </mxCell>
        <mxCell id="qT4uBBfOojEsHXsENd5q-28" value="" style="curved=1;startArrow=none;endArrow=block;exitX=0.5;exitY=1;entryX=0.5;entryY=0;rounded=0;" edge="1" parent="1" source="qT4uBBfOojEsHXsENd5q-7" target="qT4uBBfOojEsHXsENd5q-8">
          <mxGeometry relative="1" as="geometry">
            <Array as="points" />
          </mxGeometry>
        </mxCell>
        <mxCell id="qT4uBBfOojEsHXsENd5q-29" value="" style="curved=1;startArrow=none;endArrow=block;exitX=0.5;exitY=1;entryX=0.5;entryY=0;rounded=0;" edge="1" parent="1" source="qT4uBBfOojEsHXsENd5q-8" target="qT4uBBfOojEsHXsENd5q-9">
          <mxGeometry relative="1" as="geometry">
            <Array as="points" />
          </mxGeometry>
        </mxCell>
        <mxCell id="qT4uBBfOojEsHXsENd5q-30" value="" style="curved=1;startArrow=none;endArrow=block;exitX=0.5;exitY=1;entryX=0.13;entryY=0;rounded=0;" edge="1" parent="1" source="qT4uBBfOojEsHXsENd5q-6" target="qT4uBBfOojEsHXsENd5q-10">
          <mxGeometry relative="1" as="geometry">
            <Array as="points">
              <mxPoint x="126" y="619" />
            </Array>
          </mxGeometry>
        </mxCell>
        <mxCell id="qT4uBBfOojEsHXsENd5q-31" value="" style="curved=1;startArrow=none;endArrow=block;exitX=0.5;exitY=1;entryX=0.87;entryY=0;rounded=0;" edge="1" parent="1" source="qT4uBBfOojEsHXsENd5q-9" target="qT4uBBfOojEsHXsENd5q-10">
          <mxGeometry relative="1" as="geometry">
            <Array as="points">
              <mxPoint x="340" y="619" />
            </Array>
          </mxGeometry>
        </mxCell>
        <mxCell id="qT4uBBfOojEsHXsENd5q-32" value="" style="curved=1;startArrow=none;endArrow=block;exitX=0.5;exitY=1;entryX=0.5;entryY=0;rounded=0;" edge="1" parent="1" source="qT4uBBfOojEsHXsENd5q-10" target="qT4uBBfOojEsHXsENd5q-11">
          <mxGeometry relative="1" as="geometry">
            <Array as="points" />
          </mxGeometry>
        </mxCell>
        <mxCell id="qT4uBBfOojEsHXsENd5q-33" value="" style="curved=1;startArrow=none;endArrow=block;exitX=0.5;exitY=1;entryX=0.5;entryY=0;rounded=0;" edge="1" parent="1" source="qT4uBBfOojEsHXsENd5q-11" target="qT4uBBfOojEsHXsENd5q-12">
          <mxGeometry relative="1" as="geometry">
            <Array as="points" />
          </mxGeometry>
        </mxCell>
        <mxCell id="qT4uBBfOojEsHXsENd5q-34" value="" style="curved=1;startArrow=none;endArrow=block;exitX=0.5;exitY=1;entryX=0.5;entryY=0;rounded=0;" edge="1" parent="1" source="qT4uBBfOojEsHXsENd5q-12" target="qT4uBBfOojEsHXsENd5q-13">
          <mxGeometry relative="1" as="geometry">
            <Array as="points" />
          </mxGeometry>
        </mxCell>
        <mxCell id="qT4uBBfOojEsHXsENd5q-35" value="" style="curved=1;startArrow=none;endArrow=block;exitX=0.5;exitY=1;entryX=0.5;entryY=0;rounded=0;" edge="1" parent="1" source="qT4uBBfOojEsHXsENd5q-13" target="qT4uBBfOojEsHXsENd5q-14">
          <mxGeometry relative="1" as="geometry">
            <Array as="points" />
          </mxGeometry>
        </mxCell>
        <mxCell id="qT4uBBfOojEsHXsENd5q-36" value="" style="curved=1;startArrow=none;endArrow=block;exitX=0.5;exitY=1;entryX=0.5;entryY=0;rounded=0;" edge="1" parent="1" source="qT4uBBfOojEsHXsENd5q-14" target="qT4uBBfOojEsHXsENd5q-15">
          <mxGeometry relative="1" as="geometry">
            <Array as="points" />
          </mxGeometry>
        </mxCell>
        <mxCell id="qT4uBBfOojEsHXsENd5q-37" value="通過" style="curved=1;startArrow=none;endArrow=block;exitX=0;exitY=0.95;entryX=0.5;entryY=0.01;rounded=0;" edge="1" parent="1" source="qT4uBBfOojEsHXsENd5q-15" target="qT4uBBfOojEsHXsENd5q-16">
          <mxGeometry relative="1" as="geometry">
            <Array as="points">
              <mxPoint x="106" y="1356" />
            </Array>
          </mxGeometry>
        </mxCell>
        <mxCell id="qT4uBBfOojEsHXsENd5q-38" value="不通過" style="curved=1;startArrow=none;endArrow=block;exitX=1;exitY=0.95;entryX=0.5;entryY=0.01;rounded=0;" edge="1" parent="1" source="qT4uBBfOojEsHXsENd5q-15" target="qT4uBBfOojEsHXsENd5q-17">
          <mxGeometry relative="1" as="geometry">
            <Array as="points">
              <mxPoint x="360" y="1356" />
            </Array>
          </mxGeometry>
        </mxCell>
        <mxCell id="qT4uBBfOojEsHXsENd5q-39" value="" style="curved=1;startArrow=none;endArrow=block;exitX=0.5;exitY=1.01;entryX=0.08;entryY=0.01;rounded=0;" edge="1" parent="1" source="qT4uBBfOojEsHXsENd5q-16" target="qT4uBBfOojEsHXsENd5q-18">
          <mxGeometry relative="1" as="geometry">
            <Array as="points">
              <mxPoint x="106" y="1471" />
            </Array>
          </mxGeometry>
        </mxCell>
        <mxCell id="qT4uBBfOojEsHXsENd5q-40" value="" style="curved=1;startArrow=none;endArrow=block;exitX=0.5;exitY=1.01;entryX=0.92;entryY=0.01;rounded=0;" edge="1" parent="1" source="qT4uBBfOojEsHXsENd5q-17" target="qT4uBBfOojEsHXsENd5q-18">
          <mxGeometry relative="1" as="geometry">
            <Array as="points">
              <mxPoint x="360" y="1471" />
            </Array>
          </mxGeometry>
        </mxCell>
        <mxCell id="qT4uBBfOojEsHXsENd5q-41" value="" style="curved=1;startArrow=none;endArrow=block;exitX=0.5;exitY=1.01;entryX=0.5;entryY=0.01;rounded=0;" edge="1" parent="1" source="qT4uBBfOojEsHXsENd5q-18" target="qT4uBBfOojEsHXsENd5q-19">
          <mxGeometry relative="1" as="geometry">
            <Array as="points" />
          </mxGeometry>
        </mxCell>
        <mxCell id="qT4uBBfOojEsHXsENd5q-42" value="" style="curved=1;startArrow=none;endArrow=block;exitX=0.5;exitY=1.01;entryX=0.5;entryY=0.01;rounded=0;" edge="1" parent="1" source="qT4uBBfOojEsHXsENd5q-19" target="qT4uBBfOojEsHXsENd5q-20">
          <mxGeometry relative="1" as="geometry">
            <Array as="points" />
          </mxGeometry>
        </mxCell>
      </root>
    </mxGraphModel>
  </diagram>
</mxfile>
